<?xml version="1.0" encoding="UTF-8"?>
<!DOCTYPE svg PUBLIC "-//W3C//DTD SVG 1.1//EN" "http://www.w3.org/Graphics/SVG/1.1/DTD/svg11.dtd">
<!-- Creator: CorelDRAW -->
<svg xmlns="http://www.w3.org/2000/svg" xml:space="preserve" width="33.531mm" height="33.531mm" style="shape-rendering:geometricPrecision; text-rendering:geometricPrecision; image-rendering:optimizeQuality; fill-rule:evenodd; clip-rule:evenodd"
viewBox="0 0 7.41983 7.41983"
 xmlns:xlink="http://www.w3.org/1999/xlink">
 <defs>
  <style type="text/css">
   <![CDATA[
    .fil1 {fill:#FEFEFE}
    .fil0 {fill:#434997}
    .fil2 {fill:#FEFEFE;fill-rule:nonzero}
   ]]>
  </style>
 </defs>
 <g id="Dummy_x0025_Layer_x0025_Dummy_x0025_Layer">
  <metadata id="CorelCorpID_0Corel-Layer"/>
  <rect class="fil0" width="7.41983" height="7.41983"/>
  <g id="_225691856">
   <path id="_225692336" class="fil1" d="M4.81438 2.85036c0.0823171,0.501028 -0.119404,1.19035 -0.560221,1.8601 0.155119,-0.497864 0.16563,-0.967381 0.0183443,-1.32705 -0.25297,0.226549 -0.48649,0.402557 -0.680577,0.513088l-0.474806 -0.401584c0.0757893,-0.207032 0.208161,-0.462569 0.38605,-0.745258 -0.390697,-0.0789536 -0.865082,0.0224159 -1.33993,0.275917 0.596113,-0.569736 1.25905,-0.899337 1.77898,-0.905112 0.105331,-0.138213 0.218185,-0.278927 0.337633,-0.420149 0.89469,-1.05784 1.81925,-1.74742 2.06463,-1.53988 0.245402,0.207541 -0.281162,1.23372 -1.17585,2.29158 -0.118099,0.139629 -0.23675,0.272775 -0.354251,0.398353z"/>
   <polygon id="_225692216" class="fil1" points="3.09136,3.09216 2.9815,2.99924 0.587284,5.83011 0.697151,5.92301 "/>
   <polygon id="_225692096" class="fil1" points="3.11774,3.78294 3.00789,3.69002 1.49279,5.48144 1.60264,5.57435 "/>
   <polygon id="_225691952" class="fil1" points="3.07835,4.45128 2.96851,4.35836 0.55834,7.20808 0.668185,7.301 "/>
   <path id="_225691832" class="fil2" d="M1.03638 1.10135l3.24349 -0.00745722 0 0.155517 -3.16556 0.0072802 0.00597463 2.59365c-0.0395211,0.0431944 -0.0785332,0.0874066 -0.116926,0.132792 -0.0129008,0.0152464 -0.025536,0.030537 -0.0381713,0.0458719l-0.00657209 -2.8499 -0.000177026 -0.0775817 0.0779357 -0.000177026zm3.21258 3.62527l2.33194 -0.00537717 -0.00801043 -3.47712 -0.363368 0.000840874 0 -0.155517 0.44095 -0.0010179 0.0775817 -0.000199154 0.000177026 0.0779579 0.00836448 3.63264 0.000199154 0.0775596 -0.0779579 0.000199154 -2.46369 0.00566484c0.0194729,-0.0521121 0.0374189,-0.104003 0.0538159,-0.155628z"/>
  </g>
 </g>
</svg>
