<?xml version="1.0" encoding="UTF-8"?>
<!DOCTYPE svg PUBLIC "-//W3C//DTD SVG 1.1//EN" "http://www.w3.org/Graphics/SVG/1.1/DTD/svg11.dtd">
<!-- Creator: CorelDRAW -->
<svg xmlns="http://www.w3.org/2000/svg" xml:space="preserve" width="24" height="24" style="shape-rendering:geometricPrecision; text-rendering:geometricPrecision; image-rendering:optimizeQuality; fill-rule:evenodd; clip-rule:evenodd"
viewBox="0 0 62.9009 73.0705"
 xmlns:xlink="http://www.w3.org/1999/xlink">
 <defs>
  <style type="text/css">
   <![CDATA[
    .fil0 {fill:#CCCCCC}
    .fil1 {fill:#CCCCCC;fill-rule:nonzero}
   ]]>
  </style>
 </defs>
 <g id="Dummy_x0025_Layer_x0025_Dummy_x0025_Layer">
  <metadata id="CorelCorpID_0Corel-Layer"/>
  <g id="_218132128">
   <path id="_218131288" class="fil0" d="M43.3294 27.76c0.838045,5.10081 -1.21562,12.1185 -5.70344,18.9371 1.57922,-5.06859 1.68623,-9.8486 0.186758,-13.5103 -2.57541,2.30643 -4.9528,4.09831 -6.92874,5.22359l-4.83385 -4.0884c0.771587,-2.10773 2.11922,-4.70927 3.93025,-7.58723 -3.97756,-0.803802 -8.80713,0.22821 -13.6414,2.80903 6.06884,-5.80031 12.818,-9.15587 18.1112,-9.21466 1.07234,-1.4071 2.22127,-2.83967 3.43734,-4.27741 9.10856,-10.7696 18.5212,-17.79 21.0194,-15.6771 2.49837,2.11291 -2.86242,12.5601 -11.971,23.3299 -1.20232,1.42152 -2.41028,2.77704 -3.60652,4.05551z"/>
   <polygon id="_218131168" class="fil0" points="25.7879,30.2217 24.6694,29.2757 0.294667,58.0959 1.41319,59.0416 "/>
   <polygon id="_218131072" class="fil0" points="26.0564,37.2542 24.9381,36.3083 9.51339,54.5461 10.6317,55.4921 "/>
   <polygon id="_218131984" class="fil0" points="25.6554,44.0584 24.5371,43.1125 -0,72.1246 1.11829,73.0705 "/>
   <path id="_218132152" class="fil1" d="M4.86674 9.95381l33.021 -0.0759197 0 1.58327 -32.2276 0.0741174 0.0608258 26.4052c-0.402352,0.439748 -0.799522,0.889859 -1.19038,1.35191 -0.131339,0.155219 -0.259974,0.310888 -0.38861,0.467007l-0.0669084 -29.0139 -0.00180225 -0.789835 0.793439 -0.00180225zm32.7063 36.9078l23.7408 -0.0547433 -0.0815517 -35.3995 -3.69934 0.00856067 0 -1.58327 4.48917 -0.0103629 0.789835 -0.00202753 0.00180225 0.793665 0.0851562 36.9828 0.00202753 0.789609 -0.793665 0.00202753 -25.0821 0.0576719c0.198247,-0.530536 0.38095,-1.05882 0.547883,-1.5844z"/>
  </g>
 </g>
</svg>
